<?xml version="1.0" standalone="no"?>
<!DOCTYPE svg PUBLIC "-//W3C//DTD SVG 20010904//EN"
 "http://www.w3.org/TR/2001/REC-SVG-20010904/DTD/svg10.dtd">
<svg version="1.0" xmlns="http://www.w3.org/2000/svg"
 width="626.000000pt" height="470.000000pt" viewBox="0 0 626.000000 470.000000"
 preserveAspectRatio="xMidYMid meet">

<g transform="translate(0.000000,470.000000) scale(0.100000,-0.100000)"
fill="#000000" stroke="none">
<path d="M2373 3732 c-24 -2 -43 -6 -43 -10 0 -4 -43 -6 -95 -5 -53 1 -95 -3
-95 -8 0 -5 -11 -9 -25 -9 -31 0 -33 17 -2 24 12 3 -47 3 -131 1 -153 -4 -187
-10 -161 -26 10 -6 8 -9 -8 -9 -12 0 -25 5 -28 10 -7 11 -54 3 -69 -11 -15
-14 1 -22 39 -21 19 1 35 -3 35 -8 0 -6 -9 -10 -19 -10 -11 0 -22 -3 -24 -7
-7 -12 100 -8 126 4 62 29 86 38 135 48 33 7 55 8 59 2 9 -15 -19 -27 -67 -27
-33 0 -41 -3 -30 -10 11 -7 11 -10 2 -10 -7 0 -10 -4 -7 -10 3 -5 33 -10 66
-10 62 0 62 0 61 -52 0 -17 5 -28 13 -28 36 0 25 -43 -16 -63 -47 -24 -33
-122 22 -146 31 -14 31 -13 84 43 29 31 62 56 72 56 11 0 42 11 69 25 27 14
59 25 71 25 21 0 51 10 101 33 12 6 20 17 18 24 -3 7 8 23 25 35 20 15 29 29
25 41 -3 13 0 17 10 13 19 -7 18 11 -2 22 -13 7 -10 12 18 24 18 9 40 18 48
21 8 3 -4 6 -27 6 -23 1 -43 6 -45 12 -4 11 -117 17 -205 11z m-496 -38 c-3
-3 -12 -4 -19 -1 -8 3 -5 6 6 6 11 1 17 -2 13 -5z"/>
<path d="M3462 3705 c9 -9 66 -12 80 -4 8 6 -6 9 -36 9 -27 0 -47 -2 -44 -5z"/>
<path d="M3910 3700 c-8 -5 -13 -10 -10 -11 3 0 23 -2 45 -5 22 -2 46 -7 53
-9 7 -3 11 -1 8 4 -3 5 -16 11 -28 14 -13 2 -30 7 -38 11 -8 3 -22 1 -30 -4z"/>
<path d="M3398 3693 c7 -3 16 -2 19 1 4 3 -2 6 -13 5 -11 0 -14 -3 -6 -6z"/>
<path d="M2970 3678 c0 -5 12 -8 28 -8 18 0 23 -3 14 -9 -11 -6 -10 -10 4 -15
10 -4 25 0 36 11 14 13 21 14 30 5 7 -7 19 -12 28 -11 8 0 4 5 -10 11 l-25 11
35 7 35 7 -35 2 c-20 0 -41 -4 -48 -11 -8 -8 -12 -8 -12 -1 0 6 -18 10 -40 9
-22 0 -40 -4 -40 -8z"/>
<path d="M1585 3670 c3 -5 16 -10 28 -10 18 0 19 2 7 10 -20 13 -43 13 -35 0z"/>
<path d="M4030 3670 c0 -5 9 -10 20 -10 11 0 20 5 20 10 0 6 -9 10 -20 10 -11
0 -20 -4 -20 -10z"/>
<path d="M1665 3660 c3 -5 8 -10 11 -10 2 0 4 5 4 10 0 6 -5 10 -11 10 -5 0
-7 -4 -4 -10z"/>
<path d="M1370 3636 c0 -8 -5 -16 -12 -18 -7 -3 -5 -7 6 -11 11 -5 15 -3 10 5
-5 8 2 9 27 4 l33 -6 -22 20 c-25 23 -42 26 -42 6z"/>
<path d="M4066 3641 c-4 -6 -21 -11 -37 -11 -49 0 -123 -21 -107 -31 9 -6 2
-9 -19 -9 -18 0 -33 -4 -33 -10 0 -5 7 -10 15 -10 8 0 15 -5 15 -11 0 -9 -16
-7 -57 8 -7 3 -13 -2 -13 -12 0 -15 -2 -16 -17 -4 -15 12 -16 12 -10 -4 4 -10
7 -23 7 -28 0 -5 10 -9 23 -9 12 0 18 -4 12 -8 -5 -4 -10 -16 -10 -27 0 -11
-8 -21 -18 -23 -16 -3 -17 -1 -6 16 10 16 10 23 -2 36 -30 33 -39 45 -39 55 0
7 -22 21 -35 21 -3 0 -9 -9 -15 -20 -8 -15 -5 -24 17 -45 31 -28 31 -29 -17
-15 -66 19 -90 21 -84 7 3 -10 -8 -13 -43 -14 -84 -2 -91 -3 -107 -18 -8 -8
-22 -15 -31 -15 -11 0 -15 5 -11 15 3 9 0 15 -10 15 -11 0 -13 -6 -9 -20 5
-16 2 -20 -15 -20 -11 0 -23 -7 -27 -16 -4 -11 -13 -14 -31 -9 -22 5 -24 4
-13 -9 15 -18 8 -20 -20 -6 -10 6 -19 17 -19 25 0 8 -7 15 -15 15 -8 0 -15 4
-15 9 0 5 18 5 42 0 42 -10 68 -6 68 9 0 13 -126 51 -150 45 -15 -4 -21 -2
-17 4 10 16 -22 24 -45 12 -15 -8 -19 -8 -14 0 9 14 13 15 -72 -12 -40 -13
-69 -26 -65 -30 9 -9 -66 -87 -84 -87 -7 0 -13 -4 -13 -9 0 -5 -9 -13 -20 -16
-22 -7 -26 -35 -10 -66 13 -23 28 -24 51 -3 16 15 19 13 34 -16 12 -23 14 -35
6 -43 -20 -20 -11 -26 17 -11 15 7 33 14 40 14 6 0 12 11 12 25 0 14 7 28 15
31 17 7 21 34 5 34 -21 0 -8 34 25 66 32 32 65 45 65 25 0 -5 -12 -18 -26 -28
-22 -16 -24 -22 -14 -47 10 -27 12 -28 60 -21 34 5 50 3 50 -4 0 -6 -15 -11
-32 -11 -18 0 -42 -8 -53 -16 -19 -15 -19 -15 -1 -12 10 2 21 -3 24 -11 3 -9
-1 -11 -17 -6 -15 5 -23 1 -27 -12 -12 -38 -22 -48 -50 -50 -16 -1 -48 -4 -71
-6 -52 -5 -68 9 -53 47 9 25 8 26 -11 15 -16 -8 -20 -17 -15 -39 5 -25 2 -29
-24 -35 -17 -4 -30 -10 -30 -15 0 -11 -90 -76 -101 -73 -5 2 -9 -2 -9 -7 0 -6
-12 -10 -26 -10 l-26 0 30 -25 c25 -21 29 -30 23 -53 -7 -25 -11 -27 -69 -30
l-62 -3 0 -32 c0 -18 -4 -38 -9 -46 -13 -20 -1 -51 19 -51 40 0 32 -67 -10
-90 -11 -6 -24 -28 -30 -50 -7 -25 -21 -47 -38 -57 -15 -10 -33 -25 -39 -33
-26 -31 -73 -129 -65 -134 13 -8 13 -73 0 -104 -16 -39 -10 -73 19 -102 14
-13 31 -37 39 -52 8 -16 31 -44 52 -63 32 -31 41 -34 72 -29 19 4 49 6 66 5
17 -1 47 5 67 14 52 21 76 19 89 -9 8 -20 16 -24 37 -20 38 8 54 -23 42 -78
-9 -38 -7 -47 14 -78 49 -71 79 -186 56 -214 -5 -6 -14 -34 -18 -61 -8 -42 -5
-58 13 -100 12 -27 24 -72 28 -99 4 -27 21 -75 38 -108 16 -32 27 -65 25 -73
-3 -7 0 -20 6 -29 10 -12 23 -14 78 -7 36 5 77 16 91 25 33 22 98 117 98 144
0 15 9 26 26 32 23 9 25 14 23 62 -3 51 -2 52 50 98 l53 47 -6 74 c-8 94 -11
112 -19 126 -13 21 27 87 95 158 51 52 75 88 98 142 39 94 39 104 -2 97 -18
-3 -46 -10 -62 -15 -23 -7 -34 -6 -45 6 -19 19 -12 25 74 60 39 16 78 37 88
47 10 10 22 18 28 18 27 0 95 100 85 126 -3 8 -17 19 -31 24 -15 6 -25 17 -25
30 0 26 -16 26 -30 0 -15 -28 -60 -27 -60 1 0 15 -5 19 -15 15 -8 -3 -15 -1
-15 5 0 6 -10 24 -21 41 -15 20 -18 33 -11 40 7 7 21 -1 46 -26 36 -36 76 -53
95 -42 5 4 14 -1 19 -10 7 -13 27 -17 89 -19 70 -3 83 -6 108 -29 15 -14 32
-26 36 -26 5 0 6 -6 3 -14 -7 -19 35 -33 46 -16 9 14 14 2 25 -60 4 -19 12
-48 20 -65 7 -16 25 -59 40 -95 15 -36 29 -67 31 -69 2 -2 12 6 23 18 20 23
36 97 25 124 -4 11 0 19 11 23 21 9 104 96 105 110 0 7 17 15 37 19 30 5 40 3
50 -12 8 -10 23 -29 35 -42 11 -13 21 -35 21 -48 0 -23 20 -32 32 -13 13 21
24 8 43 -48 11 -32 17 -72 14 -90 -3 -22 1 -39 12 -51 9 -10 23 -39 32 -64 9
-28 27 -55 44 -67 37 -26 45 -25 26 2 -9 12 -16 33 -16 46 0 13 -12 36 -28 50
-56 54 -66 87 -46 150 4 15 94 -68 94 -88 0 -6 18 4 40 21 32 26 40 39 40 65
0 22 -12 46 -40 80 -45 55 -46 57 -24 78 26 27 44 20 38 -14 -5 -23 -3 -30 9
-30 21 0 42 37 25 42 -16 6 -1 28 19 28 23 0 110 57 118 78 24 56 23 137 -1
161 -30 30 -54 60 -54 71 0 5 10 15 22 21 l22 12 -24 9 c-13 5 -30 6 -37 4 -7
-3 -13 -1 -13 4 0 6 -7 10 -15 10 -14 0 -13 3 2 25 23 31 33 31 33 -1 0 -24 1
-24 22 -10 30 22 37 20 48 -10 6 -14 14 -22 20 -19 9 6 20 -12 34 -57 4 -15 9
-16 31 -6 14 6 25 15 25 20 0 4 -16 26 -35 47 -20 22 -32 42 -27 45 5 3 12 19
15 35 5 22 11 28 25 24 27 -7 43 19 49 80 4 42 1 60 -12 81 -10 15 -15 29 -12
33 7 7 46 -37 47 -52 1 -18 37 -58 56 -61 13 -2 11 3 -9 22 -28 25 -37 51 -14
38 6 -4 -13 19 -43 50 -30 31 -55 56 -57 56 -1 0 1 -8 4 -17 6 -14 1 -13 -24
5 -17 12 -33 19 -37 15 -3 -3 -14 1 -24 10 -10 10 -22 14 -27 10 -4 -5 -5 0
-2 10 4 11 10 30 13 43 5 21 12 24 58 26 28 1 71 0 96 -1 37 -2 43 0 33 10 -7
7 -13 19 -13 26 0 17 42 17 59 1 11 -10 14 -10 18 0 3 6 9 12 14 12 11 0 8
-59 -3 -66 -15 -10 17 -62 69 -108 l54 -50 -6 42 c-3 29 -1 42 7 42 7 0 3 7
-8 15 -14 11 -15 14 -4 15 8 0 -2 12 -23 27 -40 28 -49 54 -17 48 11 -2 22 0
25 6 4 5 17 6 31 3 16 -4 24 -2 24 6 0 17 30 39 55 40 15 1 13 5 -13 18 -58
29 -29 44 54 27 46 -10 42 22 -5 35 -184 49 -330 72 -316 50 7 -11 -18 -14
-28 -3 -4 3 -35 7 -70 8 -35 1 -72 7 -82 12 -19 10 -117 23 -192 27 -18 0 -33
4 -33 9 0 4 -19 7 -42 7 -28 0 -38 -3 -29 -9 8 -5 -10 -10 -50 -13 -49 -4 -71
-1 -94 12 -36 21 -109 34 -99 18 5 -8 -4 -9 -32 -3 -21 4 -58 8 -81 10 -22 1
-46 5 -51 9 -6 3 -13 2 -17 -4 -3 -5 -14 -10 -23 -10 -12 0 -8 6 12 20 l30 19
-28 10 c-15 6 -41 11 -59 10 -18 0 -46 3 -63 6 -19 4 -34 3 -38 -4z m-1043
-636 c8 -8 30 -22 48 -33 22 -12 36 -29 41 -50 5 -18 12 -32 17 -32 4 0 13
-11 19 -25 10 -22 14 -24 31 -13 17 10 18 14 6 32 -13 17 -12 21 6 34 23 16
37 8 42 -23 4 -27 36 -84 37 -66 0 11 3 11 16 0 13 -10 17 -10 24 1 7 11 12
11 23 2 8 -7 27 -10 45 -6 l31 6 -4 -47 c-5 -60 -20 -78 -58 -71 -17 3 -35 2
-42 -4 -12 -10 -86 8 -127 30 -23 13 -48 2 -48 -19 0 -10 -3 -20 -6 -23 -8 -9
-66 15 -86 35 -10 9 -26 17 -35 17 -31 1 -49 23 -48 60 0 19 -4 34 -10 33 -5
0 -43 -4 -83 -7 -40 -3 -83 -12 -95 -21 -29 -20 -87 -20 -87 0 0 8 7 16 15 16
29 3 32 4 58 23 14 11 23 24 21 31 -5 11 31 55 45 55 5 0 11 9 14 20 4 15 14
20 39 20 19 0 40 6 46 12 10 10 18 6 38 -20 14 -17 31 -32 37 -32 7 0 25 -12
40 -26 22 -20 26 -29 16 -40 -6 -8 -21 -14 -33 -14 -20 -1 -20 -1 -3 -11 15
-9 22 -7 35 13 10 12 17 30 17 38 1 8 7 14 14 12 7 -1 10 2 6 8 -3 5 -11 10
-17 10 -13 0 -78 68 -78 81 0 14 17 11 33 -6z m409 -404 c12 -20 25 -37 30
-39 4 -2 12 -19 19 -39 6 -20 25 -55 41 -80 30 -45 54 -110 44 -121 -8 -7 -76
58 -76 74 0 6 -9 23 -20 37 -11 14 -20 36 -20 49 0 13 -5 29 -10 34 -6 6 -24
38 -39 71 -26 55 -27 60 -10 56 10 -3 29 -22 41 -42z"/>
<path d="M2927 2936 c-5 -21 -6 -41 -3 -44 12 -11 17 7 14 44 l-3 39 -8 -39z"/>
<path d="M1573 3633 c-14 -5 -18 -23 -5 -23 5 0 16 6 26 13 19 14 6 19 -21 10z"/>
<path d="M1664 3625 c20 -20 93 -28 131 -15 14 5 1 9 -40 13 -33 3 -71 9 -85
13 -24 7 -25 7 -6 -11z"/>
<path d="M3625 3635 c-5 -2 -27 -6 -48 -10 -28 -4 -43 -14 -57 -38 l-20 -32
37 -12 c20 -7 38 -11 40 -9 3 2 -5 7 -16 11 -12 3 -21 10 -21 14 0 17 54 57
93 68 23 6 33 11 22 11 -11 0 -24 -1 -30 -3z"/>
<path d="M1455 3620 c-3 -5 3 -10 15 -10 12 0 18 5 15 10 -3 6 -10 10 -15 10
-5 0 -12 -4 -15 -10z"/>
<path d="M4550 3620 c15 -10 98 -14 88 -5 -2 3 -27 7 -54 10 -33 3 -44 1 -34
-5z"/>
<path d="M1618 3613 c7 -3 16 -2 19 1 4 3 -2 6 -13 5 -11 0 -14 -3 -6 -6z"/>
<path d="M1230 3591 c0 -6 -6 -11 -14 -11 -7 0 -20 -7 -27 -17 -13 -14 -11
-16 11 -10 14 3 36 9 50 13 22 7 24 6 11 -9 -12 -15 -11 -17 8 -17 34 0 24
-20 -11 -21 -29 -2 -28 -3 15 -12 26 -6 47 -15 47 -22 0 -9 -52 -12 -100 -5
-3 0 1 4 9 9 10 6 -4 12 -45 17 -32 4 -65 7 -71 6 -7 -2 -13 1 -13 6 0 5 -35
3 -77 -5 -43 -7 -87 -11 -98 -8 -66 18 -193 35 -224 30 -30 -5 -99 -23 -160
-41 -11 -3 -11 -7 -1 -19 17 -21 8 -28 -42 -30 -62 -3 -68 -4 -68 -15 0 -5 14
-10 30 -10 17 0 30 -4 30 -9 0 -12 -25 -21 -56 -21 -24 0 -72 -25 -86 -45 -13
-17 -9 -25 10 -18 15 6 15 4 4 -9 -11 -14 -10 -16 12 -14 34 4 33 -9 -1 -29
-28 -16 -23 -15 50 12 21 7 42 11 48 8 5 -3 7 0 4 7 -3 8 11 20 38 30 l42 18
-25 -20 -25 -19 50 15 c27 8 56 11 65 8 8 -4 23 -6 32 -5 39 5 58 -17 58 -67
0 -31 3 -42 9 -33 6 9 10 -5 12 -43 3 -44 1 -55 -10 -51 -9 4 -11 0 -6 -12 19
-44 16 -60 -17 -104 -51 -66 -68 -107 -68 -161 0 -39 5 -54 25 -74 17 -17 25
-36 25 -60 0 -19 6 -43 12 -54 11 -17 10 -22 0 -29 -10 -6 -6 -12 13 -25 l27
-18 -7 34 c-4 18 -11 37 -16 43 -17 17 -10 45 11 45 15 0 20 -7 20 -26 0 -14
9 -39 21 -55 11 -16 17 -33 14 -39 -3 -5 -2 -10 3 -10 17 0 54 -80 48 -104 -6
-24 5 -38 48 -63 52 -30 93 -44 115 -40 16 3 31 -3 45 -17 12 -12 37 -28 56
-36 19 -7 42 -19 50 -26 8 -7 19 -13 25 -13 5 0 11 -5 14 -12 2 -7 -1 -9 -8
-5 -6 4 -11 3 -11 -3 0 -15 49 -61 65 -61 8 0 15 -4 15 -10 0 -18 18 -10 23
10 3 11 10 20 16 20 28 0 43 -118 19 -145 -43 -48 -56 -77 -47 -102 5 -14 4
-25 -2 -29 -15 -9 -7 -56 14 -77 10 -10 26 -35 34 -55 8 -21 25 -50 37 -67 11
-16 19 -32 17 -35 -2 -3 23 -26 55 -51 68 -53 71 -62 73 -217 1 -58 5 -110 9
-116 4 -6 7 -42 8 -81 2 -77 11 -155 19 -163 3 -3 5 2 5 12 0 10 5 14 11 11 7
-5 8 -25 4 -56 -6 -41 -4 -49 9 -49 19 0 21 -11 5 -27 -8 -8 -1 -25 23 -61 34
-52 81 -83 145 -97 38 -8 52 9 21 26 -39 20 -67 61 -61 89 3 14 10 29 14 34
14 16 11 22 -18 35 -26 12 -27 13 -9 26 11 8 16 20 12 30 -3 9 0 18 9 21 19 8
19 24 1 24 -8 0 -17 4 -20 8 -3 5 5 8 17 8 17 -1 21 4 20 20 -2 18 4 23 32 28
36 7 51 31 40 66 -5 15 -2 20 14 20 22 0 51 35 51 61 0 9 7 19 15 23 8 3 15
15 15 26 0 11 5 20 10 20 6 0 10 16 10 36 0 39 16 77 29 69 5 -2 14 2 21 10 7
8 23 15 35 15 19 0 34 16 39 40 1 3 5 11 9 18 5 7 11 46 14 87 4 45 11 80 19
86 8 6 14 16 14 21 0 5 9 21 20 35 30 39 25 113 -8 113 -9 0 -26 10 -38 21
-13 12 -44 25 -70 30 -26 5 -50 13 -53 18 -9 12 -52 33 -58 27 -10 -9 -40 29
-54 68 -17 46 -52 76 -89 76 -31 0 -114 75 -104 92 4 7 2 8 -4 4 -6 -4 -21 -2
-32 4 -14 8 -20 8 -20 0 0 -14 -56 -3 -86 17 -15 9 -24 11 -29 4 -9 -16 -28
-13 -22 3 10 26 -68 -21 -81 -49 -11 -25 -13 -25 -36 -10 -20 13 -29 14 -47 4
-20 -10 -25 -8 -45 16 -18 23 -20 32 -11 66 12 51 -2 71 -49 65 -42 -5 -43 5
-10 74 22 46 23 50 6 50 -28 0 -50 -11 -50 -25 0 -15 -26 -38 -49 -42 -37 -7
-58 7 -70 45 -11 33 -11 47 5 96 25 78 66 111 126 102 25 -4 44 -3 48 4 3 5
17 10 31 10 68 1 79 -6 79 -51 0 -14 6 -34 14 -44 13 -18 14 -18 21 4 3 12 4
40 0 62 -8 48 -2 57 77 110 32 22 58 44 58 50 0 26 67 98 101 108 25 7 36 17
35 28 -1 11 15 25 44 39 45 23 78 32 50 14 -22 -14 -3 -25 23 -13 12 6 37 16
55 23 17 7 32 16 32 21 0 12 -17 11 -25 -1 -4 -6 -15 -2 -27 10 -17 15 -19 22
-9 34 15 17 1 29 -26 20 -17 -5 -16 -4 1 10 24 20 30 20 46 1 7 -8 17 -15 22
-15 6 0 5 6 -2 15 -10 12 -7 14 17 13 15 -1 46 7 68 16 l40 18 -45 -46 -44
-46 34 -1 c19 -1 41 -1 48 0 6 1 12 -4 12 -10 0 -7 3 -9 8 -5 12 13 9 56 -4
56 -22 0 -24 16 -8 49 16 31 15 33 -13 58 -15 15 -28 34 -29 43 -1 10 -4 29
-8 44 l-6 26 -29 -21 c-32 -24 -55 -17 -47 13 7 28 -18 50 -59 52 -30 1 -37
-3 -50 -31 -9 -18 -20 -33 -26 -33 -5 0 -7 -11 -3 -24 4 -18 -1 -28 -22 -45
-15 -11 -32 -21 -40 -21 -7 0 -15 -13 -19 -29 -7 -32 -32 -48 -49 -31 -8 8 -7
14 4 20 11 7 11 10 2 10 -10 0 -10 5 -2 20 9 17 8 20 -7 20 -10 0 -35 11 -54
25 -20 13 -39 22 -42 19 -2 -3 -7 6 -9 20 -4 17 2 31 16 44 21 19 105 65 138
76 12 3 16 11 12 23 -4 13 -3 14 3 5 10 -14 43 -6 43 10 0 5 9 7 20 3 37 -12
99 38 78 62 -12 15 -12 16 30 4 21 -7 32 -6 32 1 0 6 6 6 15 -2 21 -17 19 -27
-7 -33 -12 -4 -20 -9 -16 -12 3 -3 17 -1 31 4 35 14 46 -5 13 -21 -14 -6 -26
-15 -26 -20 0 -4 -16 -8 -35 -8 -19 0 -35 -5 -35 -10 0 -6 11 -8 26 -4 20 5
31 1 50 -20 14 -14 35 -26 46 -26 17 0 19 3 10 12 -21 21 -13 29 12 13 22 -14
24 -14 30 1 3 9 1 23 -5 30 -17 20 0 38 19 21 12 -10 24 -12 40 -6 30 11 28
24 -8 39 -29 12 -41 30 -20 30 20 0 9 21 -17 32 -16 7 -35 17 -43 23 -8 7 -23
15 -34 19 -14 5 -17 2 -12 -9 3 -9 0 -15 -9 -15 -8 0 -12 6 -10 13 4 9 -8 12
-42 11 -54 -1 -104 -21 -83 -34 10 -6 8 -9 -6 -13 -16 -4 -15 -5 4 -6 20 -1
21 -4 12 -21 -6 -11 -17 -20 -25 -20 -8 0 -15 -4 -15 -10 0 -5 -5 -10 -11 -10
-6 0 -8 9 -3 22 6 20 5 21 -10 9 -19 -16 -23 -5 -13 42 1 6 18 20 37 29 32 15
33 17 10 17 -15 0 -41 -14 -64 -34 -22 -19 -33 -35 -25 -35 8 -1 3 -10 -14
-25 -32 -28 -49 -32 -41 -10 4 8 10 15 16 15 5 0 6 5 3 11 -5 7 -14 3 -26 -10
-24 -25 -81 -28 -100 -5 -11 13 -9 14 14 9 17 -5 34 -1 49 9 18 13 19 16 5 16
-24 0 -21 9 11 38 18 17 21 24 9 19 -10 -4 -22 -7 -27 -7 -5 0 -16 -7 -24 -16
-9 -9 -16 -11 -16 -4 0 6 -5 8 -10 5 -6 -4 -21 0 -34 8 -30 20 -116 33 -116
18z m471 -24 c-6 -8 -8 -17 -4 -20 3 -4 1 -7 -5 -7 -13 0 -16 22 -5 33 12 13
25 7 14 -6z m-264 -1333 c-9 -9 -28 6 -21 18 4 6 10 6 17 -1 6 -6 8 -13 4 -17z"/>
<path d="M1520 3580 c0 -5 -10 -10 -22 -10 -19 -1 -20 -2 -7 -10 20 -11 56 -2
63 16 3 9 -2 14 -14 14 -11 0 -20 -4 -20 -10z"/>
<path d="M4638 3583 c6 -2 18 -2 25 0 6 3 1 5 -13 5 -14 0 -19 -2 -12 -5z"/>
<path d="M5208 3543 c6 -2 18 -2 25 0 6 3 1 5 -13 5 -14 0 -19 -2 -12 -5z"/>
<path d="M2080 3525 c-10 -12 -10 -15 2 -15 8 0 15 7 15 15 0 8 -1 15 -2 15
-2 0 -8 -7 -15 -15z"/>
<path d="M2479 3442 c6 -2 11 -10 11 -17 0 -21 35 -27 80 -14 60 18 44 34 -35
34 -37 1 -63 -1 -56 -3z"/>
<path d="M1572 3420 c-14 -11 -18 -21 -12 -25 6 -4 17 -2 23 4 7 5 24 7 38 4
24 -6 24 -6 5 15 -23 26 -25 26 -54 2z"/>
<path d="M1585 3380 c-3 -6 1 -7 9 -4 18 7 21 14 7 14 -6 0 -13 -4 -16 -10z"/>
<path d="M2713 3288 c-12 -15 -13 -48 -2 -48 4 0 15 -7 24 -16 15 -15 14 -18
-5 -36 -11 -10 -18 -24 -14 -29 3 -5 0 -17 -8 -26 -12 -15 -11 -15 9 -5 12 7
35 12 51 12 44 0 48 26 11 72 -25 32 -28 42 -19 53 10 12 9 15 -9 15 -12 0
-19 5 -16 10 9 14 -11 12 -22 -2z"/>
<path d="M433 3280 c-13 -5 -23 -11 -23 -14 0 -7 40 6 46 15 6 10 6 10 -23 -1z"/>
<path d="M310 3250 c-8 -5 -10 -10 -5 -10 6 0 17 5 25 10 8 5 11 10 5 10 -5 0
-17 -5 -25 -10z"/>
<path d="M268 3233 c7 -3 16 -2 19 1 4 3 -2 6 -13 5 -11 0 -14 -3 -6 -6z"/>
<path d="M2655 3217 c-5 -7 -16 -24 -23 -36 -14 -23 -13 -24 19 -17 38 7 35 4
43 39 5 22 3 27 -11 27 -10 -1 -22 -6 -28 -13z"/>
<path d="M683 3195 c-3 -9 -3 -18 -1 -21 3 -3 8 4 11 16 6 23 -1 27 -10 5z"/>
<path d="M5160 3022 c0 -6 5 -14 10 -17 6 -4 8 -15 5 -25 -3 -10 4 -35 15 -56
24 -41 20 -90 -5 -80 -8 3 -14 2 -14 -2 4 -23 -4 -32 -25 -32 -14 0 -33 -11
-45 -26 -19 -24 -19 -28 -4 -50 20 -32 25 -30 21 8 -2 19 2 33 10 35 7 3 10
-1 6 -11 -5 -12 -2 -15 10 -10 11 4 15 13 11 22 -5 12 -1 12 15 -3 12 -11 20
-13 20 -6 0 7 14 17 31 23 30 10 31 12 24 56 -6 43 -31 91 -47 92 -5 0 -8 5
-8 11 0 6 8 9 18 7 10 -3 23 1 30 9 11 11 8 15 -15 25 -15 7 -36 18 -45 26
-11 9 -18 11 -18 4z"/>
<path d="M720 2582 c0 -5 9 -17 20 -27 19 -17 19 -17 7 9 -12 25 -27 35 -27
18z"/>
<path d="M4971 2571 c-9 -16 -9 -27 1 -43 11 -22 12 -22 19 12 9 41 -4 61 -20
31z"/>
<path d="M1260 2530 c0 -5 12 -13 28 -16 15 -4 34 -15 43 -26 9 -10 27 -18 39
-18 20 0 19 2 -12 23 -41 29 -98 50 -98 37z"/>
<path d="M1420 2445 c0 -14 14 -20 35 -15 6 2 18 2 28 2 15 -1 16 2 7 14 -17
19 -70 19 -70 -1z"/>
<path d="M4999 2440 c-7 -26 -6 -81 2 -85 5 -4 10 -16 10 -28 1 -18 2 -19 6
-4 4 14 8 16 19 6 8 -6 14 -8 14 -3 0 5 5 2 10 -6 7 -10 10 -11 10 -2 0 7 -12
17 -26 22 -21 9 -25 15 -19 38 3 17 0 35 -9 47 -9 11 -16 18 -17 15z"/>
<path d="M1328 2423 c7 -3 16 -2 19 1 4 3 -2 6 -13 5 -11 0 -14 -3 -6 -6z"/>
<path d="M5086 2280 l4 -30 -23 20 c-15 15 -23 17 -26 8 -2 -6 1 -14 8 -16 6
-2 9 -8 6 -12 -3 -5 -1 -11 4 -15 17 -10 50 31 44 54 -8 32 -21 25 -17 -9z"/>
<path d="M4983 2258 c-15 -20 -25 -38 -20 -38 3 0 12 11 21 25 17 26 16 35 -1
13z"/>
<path d="M5103 2231 c-7 -10 -20 -18 -29 -17 -9 0 -19 -5 -22 -13 -3 -9 1 -11
16 -7 15 5 20 2 18 -11 0 -9 7 -19 16 -21 14 -3 16 1 11 14 -4 12 -3 15 5 10
13 -8 14 5 4 42 -7 22 -7 22 -19 3z"/>
<path d="M4258 2224 c-7 -26 9 -67 22 -59 14 9 12 38 -3 60 -13 17 -14 17 -19
-1z"/>
<path d="M4895 2124 c-27 -30 -58 -54 -67 -54 -12 0 -18 -8 -18 -24 0 -27 23
-88 33 -87 4 1 8 1 10 0 6 -2 45 -9 67 -11 20 -2 26 2 28 22 2 14 8 29 13 35
5 5 9 17 9 27 0 10 4 18 10 18 6 0 6 9 -1 26 -11 29 -4 64 13 64 6 0 -1 9 -15
20 -14 11 -27 19 -29 19 -1 -1 -25 -26 -53 -55z"/>
<path d="M4550 2146 c0 -3 14 -20 31 -38 16 -18 42 -57 56 -87 31 -65 79 -122
98 -115 14 6 26 60 17 82 -4 11 -6 11 -13 1 -5 -9 -11 -4 -20 17 -16 36 -48
74 -64 74 -7 0 -26 16 -44 35 -26 29 -61 47 -61 31z"/>
<path d="M5157 2065 c-4 -8 -2 -17 3 -20 6 -4 10 3 10 14 0 25 -6 27 -13 6z"/>
<path d="M5095 2060 c-4 -6 -19 -11 -33 -10 -15 1 -32 2 -37 1 -15 -1 -34 -81
-28 -113 7 -38 23 -35 24 5 l0 32 16 -32 c26 -53 43 -42 22 14 -8 22 -7 30 7
40 23 17 12 28 -14 14 -21 -11 -32 -6 -32 16 0 9 13 13 39 13 36 0 61 14 48
26 -3 3 -8 0 -12 -6z"/>
<path d="M5150 2019 c0 -5 5 -7 10 -4 6 3 10 8 10 11 0 2 -4 4 -10 4 -5 0 -10
-5 -10 -11z"/>
<path d="M5227 2014 c-4 -4 3 -15 15 -25 11 -11 16 -19 10 -19 -6 0 -9 -6 -6
-14 3 -8 13 -12 25 -9 10 3 19 0 19 -6 0 -6 6 -11 14 -11 8 0 24 -9 37 -19 21
-17 22 -22 11 -40 -11 -19 -10 -21 13 -21 14 0 25 -4 25 -10 0 -16 46 -12 60
5 18 21 28 19 60 -15 15 -16 38 -30 50 -30 19 0 18 3 -14 37 -22 24 -31 40
-24 44 22 14 -64 76 -143 104 -36 13 -40 13 -59 -7 -21 -23 -35 -17 -42 17 -3
20 -37 32 -51 19z"/>
<path d="M5180 1960 c19 -13 30 -13 30 0 0 6 -10 10 -22 10 -19 0 -20 -2 -8
-10z"/>
<path d="M5603 1931 c-9 -12 -29 -21 -43 -21 -22 -1 -23 -2 -8 -11 12 -6 24
-7 36 0 24 13 46 40 39 47 -3 3 -14 -4 -24 -15z"/>
<path d="M5276 1893 c-6 -14 -5 -15 5 -6 7 7 10 15 7 18 -3 3 -9 -2 -12 -12z"/>
<path d="M5666 1897 c3 -10 9 -15 12 -12 3 3 0 11 -7 18 -10 9 -11 8 -5 -6z"/>
<path d="M4742 1892 c-21 -14 45 -35 148 -48 19 -2 44 -6 55 -9 11 -2 27 1 35
6 13 9 13 10 -1 6 -22 -7 -100 13 -93 24 3 5 -4 10 -15 10 -48 3 -77 7 -96 13
-11 3 -26 2 -33 -2z"/>
<path d="M5010 1846 c0 -2 7 -7 16 -10 8 -3 12 -2 9 4 -6 10 -25 14 -25 6z"/>
<path d="M5101 1834 c-19 -8 -32 -17 -29 -19 5 -5 68 23 68 31 0 5 0 5 -39
-12z"/>
<path d="M4997 1819 c7 -7 15 -10 18 -7 3 3 -2 9 -12 12 -14 6 -15 5 -6 -5z"/>
<path d="M5412 1776 c-6 -15 -12 -36 -12 -47 0 -26 -27 -79 -41 -79 -6 0 -25
11 -44 25 -23 18 -31 31 -28 45 3 11 9 20 14 20 5 0 9 7 9 16 0 10 -6 14 -14
11 -7 -3 -25 1 -39 8 -22 11 -25 11 -20 -1 3 -9 -2 -14 -16 -14 -13 0 -28 -12
-39 -30 -17 -27 -20 -28 -39 -15 -20 14 -24 13 -52 -16 -17 -17 -31 -35 -31
-41 0 -6 -7 -8 -15 -4 -9 3 -15 0 -15 -8 0 -21 -43 -53 -80 -61 -71 -14 -120
-66 -104 -109 3 -9 1 -16 -6 -16 -6 0 -9 -4 -5 -9 11 -18 9 -126 -3 -148 -15
-28 -15 -30 4 -37 8 -3 28 1 43 8 15 8 42 14 59 14 17 -1 38 5 47 12 8 7 41
18 73 25 70 14 101 4 109 -37 5 -26 7 -27 23 -13 15 14 18 13 28 -10 7 -14 12
-34 12 -45 0 -24 9 -29 59 -34 62 -6 101 13 163 80 73 80 86 100 102 165 12
44 12 55 1 64 -7 5 -23 32 -35 58 -11 26 -27 50 -34 53 -8 3 -17 26 -21 52 -4
26 -12 53 -18 60 -5 7 -13 29 -16 49 l-6 37 -13 -28z"/>
<path d="M3651 1719 c-18 -21 -39 -39 -47 -39 -16 0 -29 -43 -20 -66 4 -9 0
-27 -8 -39 -18 -27 -11 -91 10 -99 29 -11 42 8 78 117 26 81 34 119 29 138
l-8 27 -34 -39z"/>
<path d="M6050 1640 c0 -5 5 -10 10 -10 6 0 10 5 10 10 0 6 -4 10 -10 10 -5 0
-10 -4 -10 -10z"/>
<path d="M5790 1586 c0 -4 9 -19 20 -33 11 -14 20 -20 20 -14 0 7 -9 21 -20
33 -11 12 -20 18 -20 14z"/>
<path d="M5190 1255 c-10 -12 -10 -15 2 -15 8 0 15 7 15 15 0 8 -1 15 -2 15
-2 0 -8 -7 -15 -15z"/>
<path d="M5841 1244 c-1 -19 -11 -41 -27 -58 -15 -14 -21 -26 -14 -26 10 0 10
-3 1 -14 -7 -8 -22 -13 -34 -10 -12 2 -30 -5 -42 -15 -11 -11 -48 -33 -82 -50
-34 -17 -64 -35 -67 -40 -9 -14 23 -22 44 -11 37 20 139 90 145 100 4 6 11 8
16 4 5 -3 33 12 61 33 36 26 47 39 36 41 -9 2 -21 19 -26 40 l-10 37 -1 -31z"/>
<path d="M5321 1143 c-7 -8 -22 -12 -32 -10 -14 4 -21 -1 -25 -19 -12 -48 21
-43 60 9 21 29 19 44 -3 20z"/>
<path d="M1810 900 c0 -5 9 -10 19 -10 11 0 23 5 26 10 4 6 -5 10 -19 10 -14
0 -26 -4 -26 -10z"/>
</g>
</svg>
